<svg width="31" height="30" viewBox="0 0 31 30" fill="none" xmlns="http://www.w3.org/2000/svg">
<path fill-rule="evenodd" clip-rule="evenodd" d="M0.684895 15.0553C0.684895 23.1743 7.28894 29.7637 15.3932 29.7637C23.5122 29.7637 30.1016 23.1743 30.1016 15.0553C30.1016 6.95105 23.5122 0.347006 15.3932 0.347006C7.28894 0.347006 0.684895 6.95105 0.684895 15.0553ZM18.3062 9.17287C18.7328 9.61412 18.7328 10.3054 18.2915 10.732L13.9526 15.0562L18.2915 19.3805C18.7328 19.807 18.7328 20.513 18.3062 20.9395C17.865 21.3808 17.1737 21.3808 16.7471 20.9395L11.6139 15.8357C11.408 15.6298 11.2904 15.3504 11.2904 15.0562C11.2904 14.762 11.408 14.4826 11.6139 14.2767L16.7471 9.17287C16.9531 8.95224 17.2325 8.84928 17.512 8.84928C17.8061 8.84928 18.0856 8.95224 18.3062 9.17287Z" fill="white"/>
</svg>
