<svg width="27" height="27" viewBox="0 0 27 27" fill="none" xmlns="http://www.w3.org/2000/svg">
<path d="M18.8789 22.802H7.84766C4.53828 22.802 2.33203 21.1473 2.33203 17.2863V9.56445C2.33203 5.70352 4.53828 4.04883 7.84766 4.04883H18.8789C22.1883 4.04883 24.3945 5.70352 24.3945 9.56445V17.2863C24.3945 21.1473 22.1883 22.802 18.8789 22.802Z" stroke="#929292" stroke-width="1.65469" stroke-miterlimit="10" stroke-linecap="round" stroke-linejoin="round"/>
<path d="M13.3621 16.734C15.1898 16.734 16.6715 15.2523 16.6715 13.4246C16.6715 11.5969 15.1898 10.1152 13.3621 10.1152C11.5344 10.1152 10.0527 11.5969 10.0527 13.4246C10.0527 15.2523 11.5344 16.734 13.3621 16.734Z" stroke="#929292" stroke-width="1.65469" stroke-miterlimit="10" stroke-linecap="round" stroke-linejoin="round"/>
<path d="M6.19141 10.668V16.1836" stroke="#929292" stroke-width="1.65469" stroke-miterlimit="10" stroke-linecap="round" stroke-linejoin="round"/>
<path d="M20.5332 10.668V16.1836" stroke="#929292" stroke-width="1.65469" stroke-miterlimit="10" stroke-linecap="round" stroke-linejoin="round"/>
</svg>
