<svg width="22" height="22" viewBox="0 0 22 22" fill="none" xmlns="http://www.w3.org/2000/svg">
<path d="M9.33661 13.894L9.37654 13.9472L9.42979 13.9872C9.55516 14.0812 9.70357 14.1307 9.86028 14.1307H11.4033C11.5591 14.1307 11.7306 14.0803 11.8669 13.9439C11.9865 13.8243 12.0705 13.6596 12.0705 13.4635V12.8932C12.0705 12.6985 12.1278 12.565 12.2284 12.4584L12.2286 12.4585L12.2369 12.4491C12.3939 12.2738 12.653 12.0508 13.0327 11.7796C13.4332 11.4935 13.7618 11.2266 14.0099 10.9791C14.2915 10.7098 14.5218 10.3714 14.7076 9.97657C14.9235 9.54217 15.0224 9.04463 15.0224 8.4989C15.0224 7.43043 14.6519 6.53755 13.8931 5.86949C13.1397 5.19491 12.1533 4.87981 10.984 4.87981C10.1981 4.87981 9.48291 5.031 8.85021 5.34662C8.21748 5.65105 7.71403 6.0942 7.35264 6.67416C6.98845 7.24732 6.81145 7.89973 6.81145 8.6163V8.86789C6.81145 9.0246 6.86092 9.173 6.95494 9.29837L6.97481 9.32486L6.99822 9.34828C7.11517 9.46523 7.27526 9.5481 7.46568 9.5517L9.00143 9.61847L9.01154 9.61891H9.02166C9.15101 9.61891 9.33492 9.59013 9.48743 9.45033C9.64761 9.30349 9.68883 9.11277 9.68883 8.96852V8.6163C9.68883 8.30706 9.79307 8.07771 10.0028 7.8904C10.2124 7.70333 10.5068 7.58946 10.9337 7.58946C11.3376 7.58946 11.616 7.69745 11.815 7.87432L11.8149 7.8744L11.8224 7.88076C12.0093 8.03993 12.1115 8.25107 12.1115 8.56599C12.1115 8.86028 12.0306 9.07978 11.887 9.25371C11.6963 9.47201 11.394 9.73739 10.9631 10.0498C10.4307 10.4319 10.004 10.8112 9.70009 11.1904C9.34718 11.6185 9.19311 12.1626 9.19311 12.7758V13.4635C9.19311 13.6202 9.24258 13.7686 9.33661 13.894ZM9.39666 17.2648C9.71648 17.5846 10.1243 17.7367 10.5815 17.7367C11.0322 17.7367 11.4328 17.5815 11.7495 17.2648C12.0694 16.945 12.2214 16.5371 12.2214 16.08C12.2214 15.6271 12.0718 15.2225 11.7496 14.9118C11.439 14.5897 11.0344 14.44 10.5815 14.44C10.1263 14.44 9.72005 14.5908 9.40086 14.9077C9.07575 15.2189 8.92476 15.6251 8.92476 16.08C8.92476 16.5371 9.07684 16.945 9.39666 17.2648Z" stroke="#929292" stroke-width="0.931794"/>
<circle cx="10.6047" cy="11.1867" r="9.65234" stroke="#929292" stroke-width="1.65469"/>
</svg>
