<svg width="19" height="22" viewBox="0 0 19 22" fill="none" xmlns="http://www.w3.org/2000/svg">
<path fill-rule="evenodd" clip-rule="evenodd" d="M9.22578 7.35195C8.16127 7.35195 7.29531 8.21791 7.29531 9.28352C7.29531 10.348 8.16127 11.2129 9.22578 11.2129C10.2903 11.2129 11.1563 10.348 11.1563 9.28352C11.1563 8.21791 10.2903 7.35195 9.22578 7.35195ZM9.22578 12.8676C7.24898 12.8676 5.64062 11.2603 5.64062 9.28353C5.64062 7.30562 7.24898 5.69727 9.22578 5.69727C11.2026 5.69727 12.8109 7.30562 12.8109 9.28353C12.8109 11.2603 11.2026 12.8676 9.22578 12.8676Z" fill="#929292"/>
<mask id="mask0_2171_2462" style="mask-type:luminance" maskUnits="userSpaceOnUse" x="0" y="0" width="19" height="22">
<path fill-rule="evenodd" clip-rule="evenodd" d="M0.125 0.181641H18.326V21.6926H0.125V0.181641Z" fill="white"/>
</mask>
<g mask="url(#mask0_2171_2462)">
<path fill-rule="evenodd" clip-rule="evenodd" d="M9.22578 1.83633C5.11995 1.83633 1.77969 5.20858 1.77969 9.35192C1.77969 14.6238 7.98366 19.7599 9.22578 20.0335C10.4679 19.7588 16.6719 14.6227 16.6719 9.35192C16.6719 5.20858 13.3316 1.83633 9.22578 1.83633ZM9.22578 21.6926C7.24677 21.6926 0.125 15.568 0.125 9.35192C0.125 4.29519 4.20767 0.181641 9.22578 0.181641C14.2439 0.181641 18.3266 4.29519 18.3266 9.35192C18.3266 15.568 11.2048 21.6926 9.22578 21.6926Z" fill="#929292"/>
</g>
</svg>
