<svg width="16" height="23" viewBox="0 0 16 23" fill="none" xmlns="http://www.w3.org/2000/svg">
<path d="M10.7897 10.9835L10.7896 10.9835C10.0447 11.7283 9.0659 12.1004 8.08942 12.1004C7.11317 12.1004 6.13404 11.7283 5.38932 10.9835C5.3893 10.9835 5.38928 10.9835 5.38926 10.9834M10.7897 10.9835L5.7926 5.98641C4.52602 7.25299 4.52602 9.31374 5.7926 10.5802L5.38926 10.9834M10.7897 10.9835C12.279 9.49431 12.279 7.07242 10.7897 5.58311L10.7896 5.58307C10.0692 4.86277 9.10847 4.46455 8.08942 4.46455C7.07052 4.46455 6.10961 4.86253 5.3893 5.58311M10.7897 10.9835L5.3893 5.58311M5.38926 10.9834C3.89996 9.49424 3.90001 7.07239 5.3893 5.58311M5.38926 10.9834L5.3893 5.58311M8.09075 21.7324C7.89689 21.4914 7.64726 21.1765 7.35806 20.8011C6.64977 19.8816 5.70637 18.6025 4.76405 17.1618C3.82059 15.7193 2.88512 14.1254 2.18732 12.5754C1.48463 11.0146 1.04691 9.54987 1.04691 8.35114C1.04691 4.46844 4.20672 1.30863 8.08942 1.30863C11.9723 1.30863 15.1319 4.46843 15.1319 8.35114C15.1319 9.48198 14.6973 10.9124 13.9944 12.4649C13.2973 14.0044 12.3628 15.6076 11.4204 17.0673C10.4792 18.5252 9.53694 19.8295 8.82949 20.7697C8.53722 21.1582 8.2854 21.484 8.09075 21.7324Z" fill="#2873FF" stroke="#2873FF" stroke-width="1.1407"/>
</svg>
