<svg width="22" height="23" viewBox="0 0 22 23" fill="none" xmlns="http://www.w3.org/2000/svg">
<path fill-rule="evenodd" clip-rule="evenodd" d="M20.6923 6.88925L19.9975 5.71153C19.4096 4.715 18.1069 4.37123 17.0853 4.94302V4.94302C16.599 5.22284 16.0187 5.30223 15.4724 5.16368C14.926 5.02513 14.4586 4.68002 14.1731 4.20445C13.9894 3.90217 13.8907 3.55788 13.887 3.20639V3.20639C13.9035 2.64286 13.6859 2.09677 13.2836 1.69253C12.8813 1.28829 12.3286 1.06031 11.7514 1.06055H10.3515C9.78601 1.06054 9.24386 1.28063 8.84497 1.67211C8.44609 2.06359 8.22337 2.59419 8.22609 3.1465V3.1465C8.20933 4.28684 7.25808 5.20264 6.09048 5.20252C5.73062 5.19887 5.37813 5.10247 5.06866 4.92306V4.92306C4.04702 4.35127 2.7443 4.69504 2.15647 5.69157L1.41054 6.88925C0.823416 7.88453 1.17059 9.15615 2.18712 9.73374V9.73374C2.84789 10.1064 3.25494 10.795 3.25494 11.5402C3.25494 12.2855 2.84789 12.9741 2.18712 13.3467V13.3467C1.17188 13.9204 0.824328 15.189 1.41054 16.1812V16.1812L2.1156 17.3689C2.39102 17.8544 2.85314 18.2126 3.39969 18.3643C3.94623 18.516 4.53215 18.4487 5.02779 18.1774V18.1774C5.51502 17.8997 6.09564 17.8236 6.64058 17.966C7.18553 18.1085 7.64964 18.4576 7.92976 18.9359C8.11343 19.2382 8.21213 19.5825 8.21587 19.934V19.934C8.21587 21.086 9.17201 22.0199 10.3515 22.0199H11.7514C12.9269 22.0199 13.8814 21.0921 13.887 19.9439V19.9439C13.8842 19.3899 14.1084 18.8578 14.5095 18.466C14.9106 18.0742 15.4554 17.8553 16.0226 17.858C16.3816 17.8674 16.7326 17.9634 17.0444 18.1374V18.1374C18.0634 18.7109 19.3653 18.3718 19.9566 17.3789V17.3789L20.6923 16.1812C20.9771 15.7038 21.0552 15.1352 20.9095 14.6013C20.7637 14.0674 20.4061 13.6123 19.9157 13.3368V13.3368C19.4254 13.0612 19.0677 12.6061 18.922 12.0722C18.7762 11.5383 18.8544 10.9697 19.1391 10.4923C19.3243 10.1765 19.5924 9.91462 19.9157 9.73374V9.73374C20.9262 9.15647 21.2725 7.89227 20.6923 6.89923V6.89923V6.88925Z" stroke="#929292" stroke-width="1.65469" stroke-linecap="round" stroke-linejoin="round"/>
<ellipse cx="11.0581" cy="11.5404" rx="2.94284" ry="2.87443" stroke="#929292" stroke-width="1.65469" stroke-linecap="round" stroke-linejoin="round"/>
</svg>
